<svg width="21" height="24" viewBox="0 0 21 24" fill="none" xmlns="http://www.w3.org/2000/svg">
<path d="M8.37651 14.4286C7.54725 14.4286 6.875 15.1008 6.875 15.9301V23H1V9.04742C1 9.04652 1.00041 9.04566 1.00111 9.04508L10.4981 1.29244C10.4991 1.29163 10.4991 1.29176 10.4988 1.2919C10.4987 1.29192 10.4991 1.29176 10.5 1.29176C10.5009 1.29176 10.5013 1.29192 10.5012 1.2919C10.5009 1.29176 10.5009 1.29163 10.5019 1.29245L19.9989 9.04508C19.9996 9.04566 20 9.04651 20 9.04742V23H14.125V15.9301C14.125 15.1008 13.4527 14.4286 12.6235 14.4286H8.37651Z" stroke="#111" stroke-width="2" stroke-linecap="round" stroke-linejoin="round"/>
</svg>
