<svg width="23" height="24" viewBox="0 0 23 24" fill="none" xmlns="http://www.w3.org/2000/svg">
<path d="M10.9889 0.6934C11.1412 0.502735 11.3299 0.344187 11.544 0.226932C11.758 0.109677 11.9932 0.0360452 12.236 0.0102981C12.4787 -0.0154491 12.7241 0.00719991 12.958 0.0769341C13.1919 0.146668 13.4096 0.262103 13.5986 0.416555L19.619 5.33331C19.9501 5.60364 20.1771 5.98051 20.2613 6.39958C20.3454 6.81865 20.2815 7.25393 20.0804 7.63112C19.5541 7.47025 19.0067 7.38876 18.4563 7.38934H17.9026L18.4526 6.76183L15.2818 4.17241L12.6666 7.39119H10.2875L13.8514 3.00597L12.4303 1.84507L8.00449 7.38934H5.64209L10.9889 0.6934ZM15.6878 16.6175C15.4431 16.6175 15.2084 16.7147 15.0353 16.8878C14.8623 17.0608 14.765 17.2956 14.765 17.5403C14.765 17.785 14.8623 18.0198 15.0353 18.1928C15.2084 18.3659 15.4431 18.4631 15.6878 18.4631H17.5335C17.7782 18.4631 18.0129 18.3659 18.186 18.1928C18.3591 18.0198 18.4563 17.785 18.4563 17.5403C18.4563 17.2956 18.3591 17.0608 18.186 16.8878C18.0129 16.7147 17.7782 16.6175 17.5335 16.6175H15.6878ZM1.84563 8.31215C1.84563 8.06741 1.94285 7.83269 2.11592 7.65963C2.28898 7.48657 2.5237 7.38934 2.76844 7.38934H3.7983L5.26558 5.54371H2.76844C2.03421 5.54371 1.33004 5.83539 0.810858 6.35457C0.291675 6.87375 0 7.57792 0 8.31215V19.3859C0 20.6097 0.486124 21.7833 1.35143 22.6486C2.21674 23.5139 3.39034 24 4.61407 24H18.4563C19.4353 24 20.3742 23.6111 21.0664 22.9189C21.7586 22.2266 22.1475 21.2877 22.1475 20.3087V12.9262C22.1475 11.9472 21.7586 11.0084 21.0664 10.3161C20.3742 9.62387 19.4353 9.23497 18.4563 9.23497H2.76844C2.5237 9.23497 2.28898 9.13774 2.11592 8.96468C1.94285 8.79162 1.84563 8.5569 1.84563 8.31215ZM1.84563 19.3859V10.9237C2.13355 11.0252 2.44546 11.0806 2.76844 11.0806H18.4563C18.9458 11.0806 19.4152 11.275 19.7613 11.6212C20.1075 11.9673 20.3019 12.4367 20.3019 12.9262V20.3087C20.3019 20.7982 20.1075 21.2677 19.7613 21.6138C19.4152 21.9599 18.9458 22.1544 18.4563 22.1544H4.61407C3.87984 22.1544 3.17567 21.8627 2.65649 21.3435C2.1373 20.8243 1.84563 20.1202 1.84563 19.3859Z" fill="#111"/>
</svg>
